<?xml version="1.0" encoding="UTF-8" standalone="no"?><!DOCTYPE svg PUBLIC "-//W3C//DTD SVG 1.1//EN" "http://www.w3.org/Graphics/SVG/1.1/DTD/svg11.dtd"><svg width="100%" height="100%" viewBox="0 0 953 1247" version="1.1" xmlns="http://www.w3.org/2000/svg" xmlns:xlink="http://www.w3.org/1999/xlink" xml:space="preserve" xmlns:serif="http://www.serif.com/" style="fill-rule:evenodd;clip-rule:evenodd;stroke-linecap:round;stroke-linejoin:round;stroke-miterlimit:1.5;"><g><path d="M895.986,182.964c-0,-96.938 -78.702,-175.639 -175.64,-175.639l-539.41,-0c-96.938,-0 -175.639,78.701 -175.639,175.639l-0,880.439c-0,96.938 78.701,175.64 175.639,175.64l539.41,-0c96.938,-0 175.64,-78.702 175.64,-175.64l-0,-880.439Z" style="fill:none;"/><clipPath id="_clip1"><path d="M895.986,182.964c-0,-96.938 -78.702,-175.639 -175.64,-175.639l-539.41,-0c-96.938,-0 -175.639,78.701 -175.639,175.639l-0,880.439c-0,96.938 78.701,175.64 175.639,175.64l539.41,-0c96.938,-0 175.64,-78.702 175.64,-175.64l-0,-880.439Z"/></clipPath><g clip-path="url(#_clip1)"><path d="M1110.09,237.198c-0,-161.561 -131.168,-292.729 -292.729,-292.729l-25.929,0c-161.561,0 -292.728,131.168 -292.728,292.729l-0,776.123c-0,161.561 131.167,292.729 292.728,292.729l25.929,-0c161.561,-0 292.729,-131.168 292.729,-292.729l-0,-776.123Z" style="fill:#12627b;"/></g><path d="M895.986,182.964c-0,-96.938 -78.702,-175.639 -175.64,-175.639l-539.41,-0c-96.938,-0 -175.639,78.701 -175.639,175.639l-0,880.439c-0,96.938 78.701,175.64 175.639,175.64l539.41,-0c96.938,-0 175.64,-78.702 175.64,-175.64l-0,-880.439Z" style="fill:none;stroke:#12627b;stroke-width:9.03px;stroke-dasharray:0,27.1,0,0;"/><path d="M901.282,177.729c0,-98.091 -79.637,-177.729 -177.729,-177.729l-545.824,0c-98.091,0 -177.729,79.638 -177.729,177.729l-0,890.91c-0,98.091 79.638,177.728 177.729,177.728l545.824,0c98.092,0 177.729,-79.637 177.729,-177.728l0,-890.91Z" style="fill:none;"/><clipPath id="_clip2"><path d="M901.282,177.729c0,-98.091 -79.637,-177.729 -177.729,-177.729l-545.824,0c-98.091,0 -177.729,79.638 -177.729,177.729l-0,890.91c-0,98.091 79.638,177.728 177.729,177.728l545.824,0c98.092,0 177.729,-79.637 177.729,-177.728l0,-890.91Z"/></clipPath><g clip-path="url(#_clip2)"><path d="M1117.94,232.607c-0,-163.482 -132.728,-296.21 -296.21,-296.21l-26.237,0c-163.483,0 -296.211,132.728 -296.211,296.21l0,785.354c0,163.483 132.728,296.21 296.211,296.21l26.237,0c163.482,0 296.21,-132.727 296.21,-296.21l-0,-785.354Z" style="fill:#12627b;"/></g><path d="M952.555,623.184l-72.258,94.076l-0,-188.153l72.258,94.077Z" style="fill:#12627b;"/></g></svg>