<?xml version="1.0" encoding="UTF-8" standalone="no"?>
<!DOCTYPE svg PUBLIC "-//W3C//DTD SVG 1.1//EN" "http://www.w3.org/Graphics/SVG/1.1/DTD/svg11.dtd">
<svg width="100%" height="100%" viewBox="0 0 4116 839" version="1.1" xmlns="http://www.w3.org/2000/svg" xmlns:xlink="http://www.w3.org/1999/xlink" xml:space="preserve" xmlns:serif="http://www.serif.com/" style="fill-rule:evenodd;clip-rule:evenodd;stroke-linejoin:round;stroke-miterlimit:2;">
    <g transform="matrix(1,0,0,1,-1514.42,-823.661)">
        <g transform="matrix(0.800868,0,0,0.800868,229.356,-1723.04)">
            <g transform="matrix(1.30981,0,0,1.25247,1207.65,2250.29)">
                <path d="M3999.93,1472.56C4067.41,1472.56 4112.4,1436.52 4133.02,1396.18L4135.83,1461.39L4226.58,1461.39L4226.58,825.523L4128.34,825.523L4128.34,1073.8C4104.9,1036.9 4060.85,1008.58 3998.99,1008.58C3895.94,1008.58 3827.64,1084.96 3827.64,1222.47L3827.64,1257.7C3827.64,1396.18 3897.81,1472.56 3999.93,1472.56ZM2567.89,1472.56C2670.94,1472.56 2741.12,1396.18 2741.12,1257.76L2741.12,1222.52C2741.12,1084.96 2671.88,1008.58 2569.77,1008.58C2507.9,1008.58 2463.85,1036.9 2440.42,1073.8L2440.42,825.523L2342.17,825.523L2342.17,1461.39L2432.92,1461.39L2435.73,1396.93C2456.35,1437.38 2501.34,1472.56 2567.89,1472.56ZM3150.26,1472.56C3207.45,1472.56 3254.32,1446.82 3277.75,1403.05L3281.5,1461.39L3371.31,1461.39L3371.31,1151.14C3371.31,1062.64 3309.57,1008.58 3205.57,1008.58C3099.66,1008.58 3032.3,1060.07 3028.55,1153.71L3122.14,1153.71C3124.95,1101.29 3154.01,1078.94 3202.76,1078.94C3247.76,1078.94 3275.88,1100.43 3275.88,1148.56L3275.88,1194.97L3142.76,1213.01C3057.56,1224.19 3012.65,1271.45 3012.65,1343.65C3012.65,1421.07 3066.91,1472.56 3150.26,1472.56ZM2108.86,1472.56C2219.44,1472.56 2283.06,1411.63 2301.78,1323.93L2203.53,1323.93C2194.16,1369.51 2165.1,1399.62 2108.86,1399.62C2042.31,1399.62 2008.57,1359.19 2006.69,1268.02L2006.69,1259.42L2303.65,1259.42C2312.08,1101.31 2249.38,1008.58 2108.86,1008.58C1981.43,1008.58 1906.57,1088.41 1906.57,1223.39L1906.57,1256.85C1906.57,1391.88 1980.49,1472.56 2108.86,1472.56ZM1357.26,1461.56L1357.26,1087.71L1464.05,1087.71L1464.05,1019.07L1357.26,1019.07L1357.26,942.514C1357.26,906.388 1374.12,888.326 1418.15,888.326C1436.89,888.326 1455.62,892.626 1466.86,896.927L1466.86,824.821C1448.13,818.813 1420.96,814.523 1398.48,814.523C1306.74,814.523 1259.95,859.148 1259.95,933.912L1259.95,1019.07L1184.08,1019.07L1184.08,1087.71L1259.95,1087.71L1259.95,1461.56L1357.26,1461.56ZM1513.69,1018.89L1513.69,1461.39L1611.93,1461.39L1611.93,1018.89L1513.69,1018.89ZM1769.31,1461.39L1769.31,1224.19C1769.31,1139.96 1812.4,1098.71 1880.79,1098.71C1892.03,1098.71 1901.39,1099.57 1910.76,1100.43L1910.76,1012.87C1904.2,1011.16 1894.84,1010.3 1888.28,1010.3C1830.2,1010.3 1787.11,1045.49 1766.5,1101.29L1764.63,1018.89L1671.07,1018.89L1671.07,1461.39L1769.31,1461.39ZM2880.7,1461.39L2880.7,1224.19C2880.7,1139.96 2923.79,1098.71 2992.17,1098.71C3003.41,1098.71 3012.78,1099.57 3022.15,1100.43L3022.15,1012.87C3015.59,1011.16 3006.22,1010.3 2999.67,1010.3C2941.59,1010.3 2898.49,1045.49 2877.89,1101.29L2876.02,1018.89L2782.45,1018.89L2782.45,1461.39L2880.7,1461.39ZM3524.94,1461.39L3524.94,1187.23C3524.94,1121.06 3560.57,1083.24 3616.81,1083.24C3671.18,1083.24 3693.68,1116.76 3693.68,1171.76L3693.68,1461.39L3790.99,1461.39L3790.99,1152C3790.99,1070.37 3750.75,1008.58 3653.37,1008.58C3587.75,1008.58 3544.63,1041.19 3522.14,1081.53L3519.33,1018.89L3426.7,1018.89L3426.7,1461.39L3524.94,1461.39ZM3177.45,1401.34C3133.39,1401.34 3109.02,1378.12 3109.02,1340.3C3109.02,1303.33 3129.64,1281.84 3170.89,1276.68L3275.88,1262.06L3275.88,1311.92C3275.88,1364.37 3232.76,1401.34 3177.45,1401.34ZM4027.11,1399.62C3962.43,1399.62 3926.82,1355.77 3926.82,1263.78L3926.82,1216.5C3926.82,1124.51 3963.37,1080.66 4027.11,1080.66C4094.59,1080.66 4131.15,1125.37 4131.15,1210.48L4131.15,1269.8C4131.15,1354.91 4094.59,1399.62 4027.11,1399.62ZM2541.65,1399.62C2474.16,1399.62 2437.61,1354.91 2437.61,1269.8L2437.61,1210.48C2437.61,1125.37 2474.16,1080.66 2541.65,1080.66C2605.38,1080.66 2641.94,1124.51 2641.94,1216.5L2641.94,1263.78C2641.94,1355.77 2605.38,1399.62 2541.65,1399.62ZM2007.63,1194.21C2014.19,1115.07 2047,1080.66 2108.86,1080.66C2170.72,1080.66 2199.78,1115.93 2204.47,1194.21L2007.63,1194.21ZM1612.87,825.523L1511.82,825.523L1511.82,953.469L1612.87,953.469L1612.87,825.523Z" style="fill:rgb(234,235,212);fill-rule:nonzero;"/>
            </g>
            <g transform="matrix(17.5861,0,0,17.5861,-44.1772,1938.17)">
                <path d="M101.759,120.446L101.759,111.033C101.759,108.382 103.073,106.107 105.369,104.781L135.704,87.267L135.704,78.401L97.363,100.536C95.068,101.861 93.754,104.137 93.754,106.788L93.754,115.824L101.759,120.446ZM139.231,80.306L139.231,89.719C139.231,92.37 137.917,94.645 135.622,95.97L105.286,113.485L105.286,122.351L112.586,118.136L139.223,102.758L139.223,108.426C139.223,111.074 137.825,111.994 135.534,113.317L118.985,122.873L112.54,126.593L116.874,129.127C119.175,130.473 121.82,130.48 124.128,129.147L126.332,127.875L126.333,127.875L126.458,127.802L143.627,117.89C145.923,116.564 147.236,114.289 147.236,111.638L147.228,111.619L147.228,107.973C147.228,104.266 145.108,102.414 142.51,100.861L143.627,100.216C145.923,98.891 147.236,96.615 147.236,93.964L147.236,84.928L139.231,80.306ZM128.45,74.159L124.116,71.624C121.816,70.279 119.17,70.272 116.862,71.604L97.363,82.862C95.068,84.187 93.754,86.463 93.754,89.114L93.754,94.189L128.45,74.159Z" style="fill:url(#_Linear1);"/>
            </g>
        </g>
    </g>
    <defs>
        <linearGradient id="_Linear1" x1="0" y1="0" x2="1" y2="0" gradientUnits="userSpaceOnUse" gradientTransform="matrix(38.4006,61.3904,-61.3904,38.4006,105.109,77.2308)"><stop offset="0" style="stop-color:rgb(205,108,54);stop-opacity:1"/><stop offset="1" style="stop-color:rgb(145,59,12);stop-opacity:1"/></linearGradient>
    </defs>
</svg>
