<?xml version="1.0" encoding="UTF-8" standalone="no"?>
<!DOCTYPE svg PUBLIC "-//W3C//DTD SVG 1.1//EN" "http://www.w3.org/Graphics/SVG/1.1/DTD/svg11.dtd">
<svg width="100%" height="100%" viewBox="0 0 4404 4902" version="1.1" xmlns="http://www.w3.org/2000/svg" xmlns:xlink="http://www.w3.org/1999/xlink" xml:space="preserve" xmlns:serif="http://www.serif.com/" style="fill-rule:evenodd;clip-rule:evenodd;stroke-linejoin:round;stroke-miterlimit:2;">
    <g transform="matrix(1,0,0,1,-21329,3785.15)">
        <g transform="matrix(82.3393,0,0,82.3393,13609.3,-9599.14)">
            <path d="M101.759,120.446L101.759,111.033C101.759,108.382 103.073,106.107 105.369,104.781L135.704,87.267L135.704,78.401L97.363,100.536C95.068,101.861 93.754,104.137 93.754,106.788L93.754,115.824L101.759,120.446ZM139.231,80.306L139.231,89.719C139.231,92.37 137.917,94.645 135.622,95.97L105.286,113.485L105.286,122.351L112.586,118.136L139.223,102.758L139.223,108.426C139.223,111.074 137.825,111.994 135.534,113.317L118.985,122.873L112.54,126.593L116.874,129.127C119.175,130.473 121.82,130.48 124.128,129.147L126.332,127.875L126.333,127.875L126.458,127.802L143.627,117.89C145.923,116.564 147.236,114.289 147.236,111.638L147.228,111.619L147.228,107.973C147.228,104.266 145.108,102.414 142.51,100.861L143.627,100.216C145.923,98.891 147.236,96.615 147.236,93.964L147.236,84.928L139.231,80.306ZM128.45,74.159L124.116,71.624C121.816,70.279 119.17,70.272 116.862,71.604L97.363,82.862C95.068,84.187 93.754,86.463 93.754,89.114L93.754,94.189L128.45,74.159Z" style="fill:rgb(205,108,54);"/>
        </g>
    </g>
</svg>
