<?xml version="1.0" encoding="UTF-8" standalone="no"?>
<!DOCTYPE svg PUBLIC "-//W3C//DTD SVG 1.1//EN" "http://www.w3.org/Graphics/SVG/1.1/DTD/svg11.dtd">
<svg width="100%" height="100%" viewBox="0 0 25 28" version="1.1" xmlns="http://www.w3.org/2000/svg" xmlns:xlink="http://www.w3.org/1999/xlink" xml:space="preserve" xmlns:serif="http://www.serif.com/" style="fill-rule:evenodd;clip-rule:evenodd;stroke-linejoin:round;stroke-miterlimit:2;">
    <g>
        <path d="M3.745,23.293L3.745,18.896C3.745,17.655 4.362,16.596 5.435,15.972L19.614,7.788L19.614,3.644L1.697,13.988C0.624,14.605 0.007,15.671 0.007,16.912L0.007,21.133L3.752,23.293L3.745,23.293Z" style="fill:rgb(205,108,54);"/>
        <path d="M21.255,4.534L21.255,8.931C21.255,10.173 20.638,11.232 19.565,11.856L5.386,20.039L5.386,24.184L8.801,22.213L21.248,15.025L21.248,17.676C21.248,18.91 20.596,19.345 19.523,19.962L11.788,24.429L8.78,26.168L10.807,27.353C11.879,27.985 13.121,27.985 14.194,27.36L15.224,26.764L15.281,26.729L23.303,22.094C24.376,21.477 24.993,20.411 24.993,19.17L24.993,17.459C24.993,15.727 24.004,14.864 22.791,14.135L23.31,13.833C24.383,13.216 25,12.15 25,10.909L25,6.687L21.262,4.527L21.255,4.534Z" style="fill:rgb(177,65,3);"/>
        <path d="M16.213,1.659L14.187,0.474C13.114,-0.157 11.872,-0.157 10.799,0.467L1.69,5.727C0.617,6.344 0,7.41 0,8.651L0,11.021L16.213,1.659Z" style="fill:rgb(205,108,54);"/>
    </g>
</svg>
