<?xml version="1.0" encoding="UTF-8" standalone="no"?>
<!DOCTYPE svg PUBLIC "-//W3C//DTD SVG 1.1//EN" "http://www.w3.org/Graphics/SVG/1.1/DTD/svg11.dtd">
<svg width="100%" height="100%" viewBox="0 0 42 47" version="1.1" xmlns="http://www.w3.org/2000/svg" xmlns:xlink="http://www.w3.org/1999/xlink" xml:space="preserve" xmlns:serif="http://www.serif.com/" style="fill-rule:evenodd;clip-rule:evenodd;stroke-linejoin:round;stroke-miterlimit:2;">
    <g transform="matrix(1,0,0,1,-77.6061,2.18413e-07)">
        <path d="M83.865,38.649L83.865,31.354C83.865,29.294 84.897,27.537 86.69,26.502L110.391,12.923L110.391,6.046L80.443,23.209C78.649,24.233 77.618,26.001 77.618,28.061L77.618,35.066L83.877,38.649L83.865,38.649Z" style="fill:rgb(205,108,54);"/>
    </g>
    <g transform="matrix(1,0,0,1,-77.6061,2.18413e-07)">
        <path d="M113.135,7.524L113.135,14.819C113.135,16.879 112.103,18.636 110.31,19.672L86.609,33.25L86.609,40.127L92.317,36.858L113.123,24.931L113.123,29.329C113.123,31.377 112.033,32.098 110.239,33.122L97.31,40.534L92.282,43.42L95.669,45.386C97.463,46.434 99.537,46.434 101.331,45.398L103.054,44.409L103.148,44.351L116.557,36.66C118.351,35.636 119.382,33.867 119.382,31.808L119.382,28.968C119.382,26.094 117.729,24.663 115.702,23.453L116.569,22.953C118.362,21.929 119.394,20.16 119.394,18.101L119.394,11.096L113.146,7.512L113.135,7.524Z" style="fill:rgb(177,65,3);"/>
    </g>
    <g transform="matrix(1,0,0,1,-77.6061,2.18413e-07)">
        <path d="M104.707,2.753L101.319,0.787C99.526,-0.26 97.451,-0.26 95.657,0.775L80.431,9.502C78.638,10.526 77.606,12.295 77.606,14.354L77.606,18.287L104.707,2.753Z" style="fill:rgb(205,108,54);"/>
    </g>
</svg>
