<svg width="55" height="59" viewBox="0 0 55 59" fill="none" xmlns="http://www.w3.org/2000/svg">
<path d="M47.4797 58.5641C43.3346 58.5641 39.9593 54.966 39.9593 50.5413V8.02624C39.9593 7.74155 39.7467 7.50831 39.4859 7.50831C39.225 7.50831 39.0156 7.74155 39.0156 8.02624V50.5413C39.0156 54.966 35.6436 58.5641 31.4953 58.5641C27.347 58.5641 23.9749 54.966 23.9749 50.5413V8.02624C23.9749 7.74155 23.7624 7.50831 23.5015 7.50831C23.2406 7.50831 23.0313 7.74155 23.0313 8.02624V50.5413C23.0313 54.966 19.656 58.5641 15.5109 58.5641H14.5318V58.4955C10.8473 57.981 7.99379 54.6093 7.99379 50.5413V8.02281C7.99379 7.73812 7.78123 7.50488 7.52357 7.50488C7.26591 7.50488 7.05013 7.73812 7.05013 8.02281V58.5333H0V8.02281C0 3.60152 3.3753 0 7.52035 0C11.6654 0 15.0407 3.60152 15.0407 8.02281V50.5379C15.0407 50.8226 15.2533 51.0558 15.5141 51.0558C15.775 51.0558 15.9844 50.8226 15.9844 50.5379V8.02624C15.9844 3.60152 19.3564 0 23.5047 0H24.4838V0.0686004C28.1683 0.583103 31.0251 3.95481 31.0251 8.02624V50.5413C31.0251 50.826 31.2344 51.0593 31.4953 51.0593C31.7562 51.0593 31.9687 50.826 31.9687 50.5413V8.02624C31.9687 3.60152 35.3408 0 39.4891 0H40.4682V0.0686004C44.1527 0.583103 47.0062 3.95481 47.0062 8.02624V50.5413C47.0062 50.826 47.2188 51.0593 47.4764 51.0593C47.7341 51.0593 47.9499 50.826 47.9499 50.5413V0.0308702H54.9968V50.5379C54.9968 54.9626 51.6215 58.5607 47.4764 58.5607L47.4797 58.5641Z" fill="url(#paint0_linear_328_2888)"/>
<defs>
<linearGradient id="paint0_linear_328_2888" x1="0" y1="0" x2="59.3647" y2="53.7429" gradientUnits="userSpaceOnUse">
<stop offset="0.489583" stop-color="#CD6C36"/>
<stop offset="0.520833" stop-color="#B14103"/>
</linearGradient>
</defs>
</svg>
