<svg width="55" height="55" viewBox="0 0 55 55" fill="none" xmlns="http://www.w3.org/2000/svg">
<g clip-path="url(#clip0_328_2879)">
<path d="M0 26.7845V0H26.7498C26.7498 0 26.7498 0.0189535 26.7498 0.0284303C26.7498 14.8059 14.7743 26.7845 0 26.7845Z" fill="url(#paint0_linear_328_2879)"/>
<path d="M28.2502 26.7845V0H55C55 0 55 0.0189535 55 0.0284303C55 14.8059 43.0214 26.7845 28.2502 26.7845Z" fill="url(#paint1_linear_328_2879)"/>
<path d="M55 28.2155V55H28.2502C28.2502 55 28.2502 54.9811 28.2502 54.9716C28.2502 40.1942 40.2257 28.2155 55 28.2155Z" fill="url(#paint2_linear_328_2879)"/>
<path d="M26.7498 28.2155V55H0C0 55 0 54.9811 0 54.9716C0 40.1942 11.9755 28.2155 26.7498 28.2155Z" fill="url(#paint3_linear_328_2879)"/>
</g>
<defs>
<linearGradient id="paint0_linear_328_2879" x1="0" y1="0" x2="27.2655" y2="26.2505" gradientUnits="userSpaceOnUse">
<stop offset="0.489583" stop-color="#CD6C36"/>
<stop offset="0.520833" stop-color="#B14103"/>
</linearGradient>
<linearGradient id="paint1_linear_328_2879" x1="28.2502" y1="0" x2="55.5157" y2="26.2505" gradientUnits="userSpaceOnUse">
<stop offset="0.489583" stop-color="#CD6C36"/>
<stop offset="0.520833" stop-color="#B14103"/>
</linearGradient>
<linearGradient id="paint2_linear_328_2879" x1="28.2502" y1="28.2155" x2="55.5157" y2="54.466" gradientUnits="userSpaceOnUse">
<stop offset="0.489583" stop-color="#CD6C36"/>
<stop offset="0.520833" stop-color="#B14103"/>
</linearGradient>
<linearGradient id="paint3_linear_328_2879" x1="0" y1="28.2155" x2="27.2655" y2="54.466" gradientUnits="userSpaceOnUse">
<stop offset="0.489583" stop-color="#CD6C36"/>
<stop offset="0.520833" stop-color="#B14103"/>
</linearGradient>
<clipPath id="clip0_328_2879">
<rect width="55" height="55" fill="white"/>
</clipPath>
</defs>
</svg>
