<svg width="59" height="59" viewBox="0 0 59 59" fill="none" xmlns="http://www.w3.org/2000/svg">
<g clip-path="url(#clip0_328_2889)">
<path d="M44.25 29.5C44.25 37.6416 37.6445 44.242 29.5 44.242C21.3555 44.242 14.75 37.6416 14.75 29.5C14.75 21.3585 21.3523 14.758 29.5 14.758C37.6477 14.758 44.25 21.3585 44.25 29.5Z" fill="url(#paint0_linear_328_2889)"/>
<path d="M0 29.5C0 37.6416 6.60229 44.242 14.75 44.242V14.758C6.60229 14.758 0 21.3585 0 29.5Z" fill="url(#paint1_linear_328_2889)"/>
<path d="M59 29.5C59 37.6416 52.3945 44.242 44.25 44.242V14.758C52.3945 14.758 59 21.3585 59 29.5Z" fill="url(#paint2_linear_328_2889)"/>
<path d="M29.5 0C21.3555 0 14.75 6.60049 14.75 14.742C14.75 14.7484 14.75 14.7516 14.75 14.758H44.2468C44.2468 14.758 44.2468 14.7452 44.2468 14.742C44.25 6.60049 37.6445 0 29.5 0Z" fill="url(#paint3_linear_328_2889)"/>
<path d="M14.75 0C6.60229 0 0 6.60049 0 14.742C0 14.7484 0 14.7516 0 14.758H14.75V0Z" fill="url(#paint4_linear_328_2889)"/>
<path d="M44.25 0V14.758H59C59 14.758 59 14.7452 59 14.742C59 6.60049 52.3945 0 44.25 0Z" fill="url(#paint5_linear_328_2889)"/>
<path d="M29.5 59C21.3555 59 14.75 52.3995 14.75 44.258C14.75 44.2516 14.75 44.2484 14.75 44.242H44.2468C44.2468 44.242 44.2468 44.2548 44.2468 44.258C44.2468 52.3995 37.6413 59 29.4968 59H29.5Z" fill="url(#paint6_linear_328_2889)"/>
<path d="M14.75 59C6.60229 59 0 52.3995 0 44.258C0 44.2516 0 44.2484 0 44.242H14.75V59Z" fill="url(#paint7_linear_328_2889)"/>
<path d="M44.25 59V44.242H59C59 44.242 59 44.2548 59 44.258C59 52.3995 52.3945 59 44.25 59Z" fill="url(#paint8_linear_328_2889)"/>
</g>
<defs>
<linearGradient id="paint0_linear_328_2889" x1="14.75" y1="14.758" x2="44.7656" y2="43.7093" gradientUnits="userSpaceOnUse">
<stop offset="0.489583" stop-color="#CD6C36"/>
<stop offset="0.520833" stop-color="#B14103"/>
</linearGradient>
<linearGradient id="paint1_linear_328_2889" x1="0" y1="14.758" x2="23.5036" y2="26.0931" gradientUnits="userSpaceOnUse">
<stop offset="0.489583" stop-color="#CD6C36"/>
<stop offset="0.520833" stop-color="#B14103"/>
</linearGradient>
<linearGradient id="paint2_linear_328_2889" x1="44.25" y1="14.758" x2="67.7536" y2="26.0931" gradientUnits="userSpaceOnUse">
<stop offset="0.489583" stop-color="#CD6C36"/>
<stop offset="0.520833" stop-color="#B14103"/>
</linearGradient>
<linearGradient id="paint3_linear_328_2889" x1="14.75" y1="0" x2="27.0436" y2="23.6873" gradientUnits="userSpaceOnUse">
<stop offset="0.489583" stop-color="#CD6C36"/>
<stop offset="0.520833" stop-color="#B14103"/>
</linearGradient>
<linearGradient id="paint4_linear_328_2889" x1="0" y1="0" x2="15.0234" y2="14.4751" gradientUnits="userSpaceOnUse">
<stop offset="0.489583" stop-color="#CD6C36"/>
<stop offset="0.520833" stop-color="#B14103"/>
</linearGradient>
<linearGradient id="paint5_linear_328_2889" x1="44.25" y1="0" x2="59.2734" y2="14.4751" gradientUnits="userSpaceOnUse">
<stop offset="0.489583" stop-color="#CD6C36"/>
<stop offset="0.520833" stop-color="#B14103"/>
</linearGradient>
<linearGradient id="paint6_linear_328_2889" x1="14.75" y1="44.242" x2="27.0436" y2="67.9293" gradientUnits="userSpaceOnUse">
<stop offset="0.489583" stop-color="#CD6C36"/>
<stop offset="0.520833" stop-color="#B14103"/>
</linearGradient>
<linearGradient id="paint7_linear_328_2889" x1="0" y1="44.242" x2="15.0234" y2="58.7171" gradientUnits="userSpaceOnUse">
<stop offset="0.489583" stop-color="#CD6C36"/>
<stop offset="0.520833" stop-color="#B14103"/>
</linearGradient>
<linearGradient id="paint8_linear_328_2889" x1="44.25" y1="44.242" x2="59.2734" y2="58.7171" gradientUnits="userSpaceOnUse">
<stop offset="0.489583" stop-color="#CD6C36"/>
<stop offset="0.520833" stop-color="#B14103"/>
</linearGradient>
<clipPath id="clip0_328_2889">
<rect width="59" height="59" fill="white"/>
</clipPath>
</defs>
</svg>
