<svg width="63" height="63" viewBox="0 0 63 63" fill="none" xmlns="http://www.w3.org/2000/svg">
<g clip-path="url(#clip0_328_2890)">
<path d="M27.1911 35.8108C29.5709 38.1907 33.4292 38.1907 35.809 35.8108C38.1887 33.4309 38.1887 29.5724 35.809 27.1925C33.4292 24.8126 29.5709 24.8126 27.1911 27.1925C24.8113 29.5724 24.8113 33.4309 27.1911 35.8108Z" fill="url(#paint0_linear_328_2890)"/>
<path d="M40.7193 40.7213C38.5929 42.8478 35.283 43.0723 32.9032 41.3949L41.3928 32.9048C43.0702 35.2847 42.8489 38.5948 40.7193 40.7213Z" fill="url(#paint1_linear_328_2890)"/>
<path d="M45.838 45.8403C43.9425 47.7359 41.1137 48.1176 38.8365 46.9982L46.9958 38.8386C48.1183 41.1158 47.7335 43.9448 45.838 45.8403Z" fill="url(#paint2_linear_328_2890)"/>
<path d="M50.7483 50.7509C49.1286 52.3706 46.8226 52.8838 44.7635 52.2969L52.291 44.7691C52.8779 46.8282 52.3679 49.1312 50.7483 50.7541V50.7509Z" fill="url(#paint3_linear_328_2890)"/>
<path d="M55.6586 55.6614C54.3468 56.9733 52.5828 57.557 50.8669 57.4223L57.4194 50.8696C57.5573 52.5855 56.9735 54.3496 55.6586 55.6614Z" fill="url(#paint4_linear_328_2890)"/>
<path d="M57.3168 63L62.9968 57.3165C62.907 58.7438 62.3201 60.1422 61.2297 61.2327C60.1392 62.3232 58.7408 62.9102 57.3136 63H57.3168Z" fill="url(#paint5_linear_328_2890)"/>
<path d="M27.1911 35.8108C24.8113 33.4309 24.8113 29.5724 27.1911 27.1925C29.5709 24.8126 33.4292 24.8126 35.8122 27.1925C38.192 29.5724 38.192 33.4309 35.8122 35.8108C33.4324 38.1907 29.5741 38.1907 27.1943 35.8108H27.1911Z" fill="url(#paint6_linear_328_2890)"/>
<path d="M22.2807 22.2819C20.1543 24.4116 19.9298 27.7185 21.6072 30.0984L30.0968 21.6083C27.717 19.9309 24.4104 20.1554 22.2807 22.2819Z" fill="url(#paint7_linear_328_2890)"/>
<path d="M17.1588 17.1597C15.2633 19.0552 14.8817 21.8842 16.001 24.1614L24.1602 16.0018C21.8831 14.8824 19.0543 15.2641 17.1588 17.1597Z" fill="url(#paint8_linear_328_2890)"/>
<path d="M12.2517 12.2523C10.632 13.8721 10.1189 16.1782 10.7058 18.2341L18.2332 10.7063C16.1742 10.1194 13.8682 10.6294 12.2485 12.2523H12.2517Z" fill="url(#paint9_linear_328_2890)"/>
<path d="M7.34137 7.34176C6.02961 8.6568 5.44268 10.4177 5.58059 12.1336L12.133 5.58089C10.4171 5.44297 8.65635 6.02672 7.34137 7.34176Z" fill="url(#paint10_linear_328_2890)"/>
<path d="M0 5.68354L5.68325 0C4.25602 0.0898076 2.85766 0.676764 1.76719 1.76728C0.67673 2.8546 0.089803 4.25624 0 5.68354Z" fill="url(#paint11_linear_328_2890)"/>
<path d="M27.1911 27.1892C24.8113 29.5691 24.8113 33.4276 27.1911 35.8075C29.5709 38.1874 33.4292 38.1874 35.809 35.8075C38.1887 33.4276 38.1887 29.5691 35.809 27.1892C33.4292 24.8093 29.5709 24.8093 27.1911 27.1892Z" fill="url(#paint12_linear_328_2890)"/>
<path d="M22.2807 40.7213C20.1543 38.5916 19.9298 35.2815 21.6072 32.9048L30.0968 41.3949C27.717 43.0723 24.4104 42.8478 22.2807 40.7213Z" fill="url(#paint13_linear_328_2890)"/>
<path d="M17.1588 45.8403C15.2633 43.9448 14.8817 41.1158 16.001 38.8386L24.1602 46.9982C21.8831 48.1208 19.0543 47.7359 17.1588 45.8403Z" fill="url(#paint14_linear_328_2890)"/>
<path d="M12.2485 50.7509C10.6289 49.1312 10.1157 46.825 10.7026 44.7691L18.23 52.2969C16.171 52.8838 13.8682 52.3738 12.2453 50.7509H12.2485Z" fill="url(#paint15_linear_328_2890)"/>
<path d="M7.34145 55.6614C6.02648 54.3496 5.44276 52.5855 5.58067 50.8696L12.1331 57.4223C10.4172 57.5602 8.65322 56.9765 7.34145 55.6614Z" fill="url(#paint16_linear_328_2890)"/>
<path d="M0 57.3197L5.68325 63C4.25923 62.9102 2.85766 62.3232 1.76719 61.2359C0.67673 60.1454 0.089803 58.747 0 57.3197Z" fill="url(#paint17_linear_328_2890)"/>
<path d="M27.1911 27.1925C29.5709 24.8126 33.4292 24.8126 35.809 27.1925C38.1887 29.5724 38.1887 33.4309 35.809 35.8108C33.4292 38.1907 29.5709 38.1907 27.1911 35.8108C24.8113 33.4309 24.8113 29.5724 27.1911 27.1925Z" fill="url(#paint18_linear_328_2890)"/>
<path d="M40.7193 22.2819C38.5897 20.1554 35.2798 19.9309 32.9032 21.6083L41.3928 30.0984C43.0702 27.7217 42.8457 24.4084 40.7193 22.2819Z" fill="url(#paint19_linear_328_2890)"/>
<path d="M45.838 17.1597C43.9425 15.2641 41.1137 14.8824 38.8365 16.0018L46.9958 24.1614C48.1183 21.8842 47.7335 19.0552 45.838 17.1597Z" fill="url(#paint20_linear_328_2890)"/>
<path d="M50.7484 12.2523C49.1287 10.6326 46.8227 10.1194 44.7668 10.7063L52.2943 18.2341C52.8812 16.175 52.3712 13.8721 50.7484 12.2523Z" fill="url(#paint21_linear_328_2890)"/>
<path d="M55.6586 7.34177C54.3468 6.02673 52.5828 5.44619 50.8669 5.5809L57.4194 12.1336C57.5573 10.4177 56.9735 8.6536 55.6586 7.34177Z" fill="url(#paint22_linear_328_2890)"/>
<path d="M57.3168 0L63 5.68354C62.9102 4.25944 62.3233 2.8578 61.2328 1.76728C60.1424 0.676764 58.744 0.0898076 57.3168 0Z" fill="url(#paint23_linear_328_2890)"/>
</g>
<defs>
<linearGradient id="paint0_linear_328_2890" x1="25.4063" y1="25.4075" x2="37.8139" y2="37.3682" gradientUnits="userSpaceOnUse">
<stop offset="0.489583" stop-color="#CD6C36"/>
<stop offset="0.520833" stop-color="#B14103"/>
</linearGradient>
<linearGradient id="paint1_linear_328_2890" x1="32.9032" y1="32.9048" x2="42.6757" y2="42.3263" gradientUnits="userSpaceOnUse">
<stop offset="0.489583" stop-color="#CD6C36"/>
<stop offset="0.520833" stop-color="#B14103"/>
</linearGradient>
<linearGradient id="paint2_linear_328_2890" x1="38.8365" y1="38.8386" x2="47.7798" y2="47.461" gradientUnits="userSpaceOnUse">
<stop offset="0.489583" stop-color="#CD6C36"/>
<stop offset="0.520833" stop-color="#B14103"/>
</linearGradient>
<linearGradient id="paint3_linear_328_2890" x1="44.7635" y1="44.7691" x2="52.6659" y2="52.3873" gradientUnits="userSpaceOnUse">
<stop offset="0.489583" stop-color="#CD6C36"/>
<stop offset="0.520833" stop-color="#B14103"/>
</linearGradient>
<linearGradient id="paint4_linear_328_2890" x1="50.8669" y1="50.8696" x2="57.557" y2="57.3194" gradientUnits="userSpaceOnUse">
<stop offset="0.489583" stop-color="#CD6C36"/>
<stop offset="0.520833" stop-color="#B14103"/>
</linearGradient>
<linearGradient id="paint5_linear_328_2890" x1="57.3136" y1="57.3165" x2="63.0995" y2="62.8939" gradientUnits="userSpaceOnUse">
<stop offset="0.489583" stop-color="#CD6C36"/>
<stop offset="0.520833" stop-color="#B14103"/>
</linearGradient>
<linearGradient id="paint6_linear_328_2890" x1="25.4063" y1="25.4075" x2="37.814" y2="37.3714" gradientUnits="userSpaceOnUse">
<stop offset="0.489583" stop-color="#CD6C36"/>
<stop offset="0.520833" stop-color="#B14103"/>
</linearGradient>
<linearGradient id="paint7_linear_328_2890" x1="20.4977" y1="20.4987" x2="30.2701" y2="29.9191" gradientUnits="userSpaceOnUse">
<stop offset="0.489583" stop-color="#CD6C36"/>
<stop offset="0.520833" stop-color="#B14103"/>
</linearGradient>
<linearGradient id="paint8_linear_328_2890" x1="15.3756" y1="15.3764" x2="24.3188" y2="23.9974" gradientUnits="userSpaceOnUse">
<stop offset="0.489583" stop-color="#CD6C36"/>
<stop offset="0.520833" stop-color="#B14103"/>
</linearGradient>
<linearGradient id="paint9_linear_328_2890" x1="10.4711" y1="10.4711" x2="18.3739" y2="18.0887" gradientUnits="userSpaceOnUse">
<stop offset="0.489583" stop-color="#CD6C36"/>
<stop offset="0.520833" stop-color="#B14103"/>
</linearGradient>
<linearGradient id="paint10_linear_328_2890" x1="5.56091" y1="5.56113" x2="12.2518" y2="12.0108" gradientUnits="userSpaceOnUse">
<stop offset="0.489583" stop-color="#CD6C36"/>
<stop offset="0.520833" stop-color="#B14103"/>
</linearGradient>
<linearGradient id="paint11_linear_328_2890" x1="0" y1="0" x2="5.78587" y2="5.57743" gradientUnits="userSpaceOnUse">
<stop offset="0.489583" stop-color="#CD6C36"/>
<stop offset="0.520833" stop-color="#B14103"/>
</linearGradient>
<linearGradient id="paint12_linear_328_2890" x1="25.4063" y1="25.4043" x2="37.8139" y2="37.3649" gradientUnits="userSpaceOnUse">
<stop offset="0.489583" stop-color="#CD6C36"/>
<stop offset="0.520833" stop-color="#B14103"/>
</linearGradient>
<linearGradient id="paint13_linear_328_2890" x1="20.4977" y1="32.9048" x2="30.2701" y2="42.3252" gradientUnits="userSpaceOnUse">
<stop offset="0.489583" stop-color="#CD6C36"/>
<stop offset="0.520833" stop-color="#B14103"/>
</linearGradient>
<linearGradient id="paint14_linear_328_2890" x1="15.3756" y1="38.8386" x2="24.3202" y2="47.4596" gradientUnits="userSpaceOnUse">
<stop offset="0.489583" stop-color="#CD6C36"/>
<stop offset="0.520833" stop-color="#B14103"/>
</linearGradient>
<linearGradient id="paint15_linear_328_2890" x1="10.4679" y1="44.7691" x2="18.3707" y2="52.3867" gradientUnits="userSpaceOnUse">
<stop offset="0.489583" stop-color="#CD6C36"/>
<stop offset="0.520833" stop-color="#B14103"/>
</linearGradient>
<linearGradient id="paint16_linear_328_2890" x1="5.56091" y1="50.8696" x2="12.2518" y2="57.3194" gradientUnits="userSpaceOnUse">
<stop offset="0.489583" stop-color="#CD6C36"/>
<stop offset="0.520833" stop-color="#B14103"/>
</linearGradient>
<linearGradient id="paint17_linear_328_2890" x1="0" y1="57.3197" x2="5.78272" y2="62.8972" gradientUnits="userSpaceOnUse">
<stop offset="0.489583" stop-color="#CD6C36"/>
<stop offset="0.520833" stop-color="#B14103"/>
</linearGradient>
<linearGradient id="paint18_linear_328_2890" x1="25.4063" y1="25.4075" x2="37.8139" y2="37.3682" gradientUnits="userSpaceOnUse">
<stop offset="0.489583" stop-color="#CD6C36"/>
<stop offset="0.520833" stop-color="#B14103"/>
</linearGradient>
<linearGradient id="paint19_linear_328_2890" x1="32.9032" y1="20.4987" x2="42.6757" y2="29.9191" gradientUnits="userSpaceOnUse">
<stop offset="0.489583" stop-color="#CD6C36"/>
<stop offset="0.520833" stop-color="#B14103"/>
</linearGradient>
<linearGradient id="paint20_linear_328_2890" x1="38.8365" y1="15.3764" x2="47.7798" y2="23.9989" gradientUnits="userSpaceOnUse">
<stop offset="0.489583" stop-color="#CD6C36"/>
<stop offset="0.520833" stop-color="#B14103"/>
</linearGradient>
<linearGradient id="paint21_linear_328_2890" x1="44.7668" y1="10.4716" x2="52.6692" y2="18.0897" gradientUnits="userSpaceOnUse">
<stop offset="0.489583" stop-color="#CD6C36"/>
<stop offset="0.520833" stop-color="#B14103"/>
</linearGradient>
<linearGradient id="paint22_linear_328_2890" x1="50.8669" y1="5.56189" x2="57.5571" y2="12.0117" gradientUnits="userSpaceOnUse">
<stop offset="0.489583" stop-color="#CD6C36"/>
<stop offset="0.520833" stop-color="#B14103"/>
</linearGradient>
<linearGradient id="paint23_linear_328_2890" x1="57.3168" y1="0" x2="63.1026" y2="5.57742" gradientUnits="userSpaceOnUse">
<stop offset="0.489583" stop-color="#CD6C36"/>
<stop offset="0.520833" stop-color="#B14103"/>
</linearGradient>
<clipPath id="clip0_328_2890">
<rect width="63" height="63" fill="white"/>
</clipPath>
</defs>
</svg>
