<?xml version="1.0" encoding="UTF-8" standalone="no"?><!DOCTYPE svg PUBLIC "-//W3C//DTD SVG 1.1//EN" "http://www.w3.org/Graphics/SVG/1.1/DTD/svg11.dtd"><svg width="100%" height="100%" viewBox="0 0 201 201" version="1.1" xmlns="http://www.w3.org/2000/svg" xmlns:xlink="http://www.w3.org/1999/xlink" xml:space="preserve" xmlns:serif="http://www.serif.com/" style="fill-rule:evenodd;clip-rule:evenodd;stroke-linecap:round;stroke-linejoin:round;stroke-miterlimit:1.5;"><g><path d="M9.654,62.822c-0,-0 -0.072,-4.511 -0.174,-10.956c-0.185,-11.701 4.333,-22.988 12.543,-31.328c8.209,-8.341 19.423,-13.038 31.126,-13.038l97.234,-0c23.483,-0 42.519,19.037 42.519,42.52l0,100.287c0,23.483 -19.036,42.52 -42.519,42.52l-99.648,0c-11.4,0 -22.322,-4.578 -30.316,-12.706c-7.993,-8.127 -12.388,-19.125 -12.198,-30.523c0.116,-6.92 0.198,-11.859 0.198,-11.859" style="fill:none;stroke:#cd6c36;stroke-width:15px;"/><path d="M7.884,100.785l132.452,0l-39.943,-44.664l39.943,44.664l-39.882,45.096" style="fill:none;stroke:#cd6c36;stroke-width:15px;"/></g></svg>