<?xml version="1.0" encoding="UTF-8" standalone="no"?><!DOCTYPE svg PUBLIC "-//W3C//DTD SVG 1.1//EN" "http://www.w3.org/Graphics/SVG/1.1/DTD/svg11.dtd"><svg width="100%" height="100%" viewBox="0 0 326 327" version="1.1" xmlns="http://www.w3.org/2000/svg" xmlns:xlink="http://www.w3.org/1999/xlink" xml:space="preserve" xmlns:serif="http://www.serif.com/" style="fill-rule:evenodd;clip-rule:evenodd;stroke-linecap:round;stroke-miterlimit:10;"><g><path d="M93.663,157.943l-22.777,22.22l-22.22,-22.776" style="fill:none;stroke:#12627b;stroke-width:15px;"/><path d="M254.905,112.082l-0,-0c-0,-22.645 -18.334,-41.014 -40.979,-41.057c-29.679,-0.056 -69.679,-0.133 -99.609,-0.19c-23.309,-0.044 -42.309,18.686 -42.598,41.994c-0.297,24.048 -0.647,52.329 -0.833,67.334" style="fill:none;stroke:#12627b;stroke-width:15px;stroke-linejoin:round;stroke-miterlimit:1.5;"/><path d="M232.179,171.338l22.833,-22.162l22.162,22.832" style="fill:none;stroke:#12627b;stroke-width:15px;"/><path d="M70.755,214.843l-0,-0c-0,22.644 18.334,41.013 40.978,41.056c29.715,0.057 69.773,0.133 99.715,0.19c23.268,0.045 42.25,-18.621 42.596,-41.886c0.347,-23.289 0.75,-50.425 0.968,-65.027" style="fill:none;stroke:#12627b;stroke-width:15px;stroke-linejoin:round;stroke-miterlimit:1.5;"/></g></svg>