<?xml version="1.0" encoding="UTF-8" standalone="no"?><!DOCTYPE svg PUBLIC "-//W3C//DTD SVG 1.1//EN" "http://www.w3.org/Graphics/SVG/1.1/DTD/svg11.dtd"><svg width="100%" height="100%" viewBox="0 0 201 201" version="1.1" xmlns="http://www.w3.org/2000/svg" xmlns:xlink="http://www.w3.org/1999/xlink" xml:space="preserve" xmlns:serif="http://www.serif.com/" style="fill-rule:evenodd;clip-rule:evenodd;stroke-linecap:round;stroke-linejoin:round;stroke-miterlimit:1.5;"><g><path d="M50.171,7.652c-11.303,-0.04 -22.157,4.421 -30.164,12.4c-8.006,7.978 -12.507,18.816 -12.507,30.119l0,100.797c0,23.483 19.037,42.519 42.52,42.519l100.156,0c11.277,0 22.092,-4.479 30.066,-12.453c7.974,-7.974 12.453,-18.789 12.453,-30.066l0,-86.472l-64.671,-56.567c0,-0 -43.184,-0.154 -77.853,-0.277Z" style="fill:none;stroke:#b24202;stroke-width:15px;"/><path d="M49.206,152.588l101.814,0" style="fill:none;stroke:#b24202;stroke-width:15px;"/><path d="M49.206,111.743l101.814,-0" style="fill:none;stroke:#b24202;stroke-width:15px;"/><path d="M112.346,7.5l0,63.853l80.349,-0" style="fill:none;stroke:#b24202;stroke-width:15px;"/></g></svg>